<?xml version="1.0" encoding="UTF-8"?>
<svg version="1.1" viewBox="0 0 1000 242" xmlns="http://www.w3.org/2000/svg">
<g transform="translate(-.60606 .22797)">
<svg width="1e3" height="242" data-background-color="#ffffff" viewBox="0 0 396 96" xmlns="http://www.w3.org/2000/svg" xmlns:xlink="http://www.w3.org/1999/xlink">
<g transform="translate(.24 -.090436)">
<svg width="395.52" height="96.181" viewBox="0 0 395.52 96.18086855597831">
<svg width="395.52" height="96.181" viewBox="0 0 572.6522057544636 139.2551237104599">
<g transform="translate(177.13 43.032)">
<svg width="395.52" height="53.191" viewBox="0 0 395.52 53.19141470987774">
<svg width="395.52" height="53.191" viewBox="0 0 395.52 53.19141470987774">
<svg width="395.52" height="53.191" viewBox="0 0 395.52 53.19141470987774">
<g>
<svg width="395.52" height="53.191" data-palette-color="#3d9970" viewBox="2 -34.25 257.6300048828125 34.650001525878906">
<path class="undefined-text-0" d="m28.15-9.05v7.55q-3.05 1.9-8.8 1.9-7.4 0-12.37-4.78-4.98-4.77-4.98-12.37 0-7.7 4.83-12.55 4.82-4.85 12.57-4.85 5.7 0 8.75 1.9v7.4q-3.75-2.3-8.35-2.3-4.05 0-6.8 2.82-2.75 2.83-2.75 7.58 0 4.65 2.75 7.37 2.75 2.73 7.1 2.73 4.7 0 8.05-2.4zm37.3-7.9q0 7.75-4.48 12.53-4.47 4.77-11.92 4.77-7.5 0-11.95-4.75t-4.45-12.55q0-7.75 4.47-12.53 4.48-4.77 11.93-4.77 7.5 0 11.95 4.75t4.45 12.55zm-22.35-7.53q-2.2 2.78-2.2 7.53t2.2 7.52q2.2 2.78 5.95 2.78t5.95-2.78q2.2-2.77 2.2-7.52t-2.2-7.53q-2.2-2.77-5.95-2.77t-5.95 2.77zm39.1 24.48h-11.5v-33.7h11.6q7.6 0 12.45 4.67 4.84 4.68 4.84 11.63 0 8.1-4.77 12.75t-12.62 4.65zm-0.15-27.35h-3.45v21.05h3.5q4.65 0 7.17-2.9 2.53-2.9 2.53-8.2 0-4.5-2.55-7.23-2.55-2.72-7.2-2.72zm43.74 21.2v6.15h-20.95v-33.7h20.75v6.15h-13v7.65h11.6v6.1h-11.6v7.65h13.2zm24.7-4.5-3.1 10.65h-8.6l-9.05-33.7h8.1l3.1 12.4q1 4 1.65 7.22 0.65 3.23 0.8 4.48l0.2 1.2q0.85-3.9 3.4-12.9l3.35-11.9h5.7l3.3 11.9q1.05 3.75 1.88 6.97 0.82 3.23 1.12 4.58l0.3 1.35q0.65-4.45 2.8-12.95l3.1-12.35h7.85l-9 33.7h-8.6l-2.95-10.65q-1.05-3.85-1.72-6.5-0.68-2.65-0.83-3.4l-0.1-0.75q-0.15 2.05-2.7 10.65zm38.3-23.05v33.7h-7.7v-33.7h7.7zm14.7 19.75v13.95h-7.7v-33.7h8.45l7.85 13.95q1.65 2.95 2.87 5.52 1.23 2.58 1.58 3.63l0.4 1.1q-0.5-3.7-0.5-10.25v-13.95h7.7v33.7h-8.45l-8.05-13.95q-1.6-2.7-2.83-5.33-1.22-2.62-1.67-3.87l-0.4-1.25q0.75 4.5 0.75 10.45zm44.19-2.9 11.95 16.85h-9.65l-11.3-16.75 10.9-16.95h9.15l-11.05 16.85zm-9.35-16.85v33.7h-7.7v-33.7h7.7z" fill="#3d9970" data-fill-palette-color="primary"/>
</svg>
</g>
</svg>
</svg>
</svg>
</g>
<svg width="164.57" height="139.26" viewBox="0 0 164.5749893354145 139.2551237104599">
<svg class="icon-icon-0" width="164.57" height="139.26" enable-background="new 0 0 100 100" data-fill-palette-color="accent" version="1.1" viewBox="0 13.42199993133545 100 84.61499786376953" xml:space="preserve" xmlns="http://www.w3.org/2000/svg" xmlns:xlink="http://www.w3.org/1999/xlink"><g fill="#3d9970" data-fill-palette-color="accent"><path d="M0 13.422v84.615h100V13.422H0zM92.308 90.346H7.692V28.807h84.615V90.346z" data-fill-palette-color="accent"/><rect x="42.002" y="66.065" width="26.488" height="7.775" data-fill-palette-color="accent"/><polygon points="15.521 66.064 41.988 55.549 41.988 55.527 42.002 55.533 42.002 47.181 41.988 47.187 41.988 47.165 15.521 36.65 15.515 45.014 31.487 51.357 15.515 57.701" data-fill-palette-color="accent"/></g></svg>
</svg>
</svg>
</svg>
<rect width="395.52" height="96.181" fill="none" visibility="hidden"/>
</g>
</svg>
</g>
</svg>
